<mxfile host="65bd71144e">
    <diagram id="uNF4uyVukMqTjVigOWnE" name="Page-1">
        <mxGraphModel dx="1612" dy="1791" grid="1" gridSize="10" guides="1" tooltips="1" connect="1" arrows="1" fold="1" page="1" pageScale="1" pageWidth="827" pageHeight="1169" math="0" shadow="0">
            <root>
                <mxCell id="0"/>
                <mxCell id="1" parent="0"/>
                <mxCell id="movies" value="Movies&#xa; &#xa;- `movie_id` (title+year hash)&#xa;    - `title`&#xa;    - `year`&#xa;    - `language`&#xa;    - `director`&#xa;    - `genre`&#xa;    - `runtime`&#xa;    - `imdb_id`&#xa;    - `has_english_subs` (Boolean, optional)" style="shape=rectangle;fillColor=#D5E8D4;strokeColor=#82B366;" parent="1" vertex="1">
                    <mxGeometry x="-40" y="-30" width="240" height="270" as="geometry"/>
                </mxCell>
                <mxCell id="screenings" value="Screenings&#xa;&#xa;    - `screening_id` (Primary Key)&#xa;    - `movie_id` (FK → Movies)&#xa;    - `cinema_id` (FK → Cinemas)&#xa;    - `show_datetime`&#xa;    - `ticket_url`" style="shape=rectangle;fillColor=#FFF2CC;strokeColor=#D6B656;" parent="1" vertex="1">
                    <mxGeometry x="330" y="-50" width="190" height="270" as="geometry"/>
                </mxCell>
                <mxCell id="cinemas" value="Cinemas&#xa;&#xa;    &#xa;    - `cinema_id` (Primary Key)&#xa;    - `name`&#xa;    - `location`&#xa;    - `address`&#xa;    - `website`" style="shape=rectangle;fillColor=#E1D5E7;strokeColor=#9673A6;" parent="1" vertex="1">
                    <mxGeometry x="620" y="40" width="180" height="270" as="geometry"/>
                </mxCell>
                <mxCell id="watchlist" value="User Watchlist    &#xa;&#xa;- `user_id`&#xa;    - `movie_id` (FK → Movies)&#xa;    - `date_added`" style="shape=rectangle;fillColor=#D4E1F5;strokeColor=#6C8EBF;" parent="1" vertex="1">
                    <mxGeometry x="-20" y="350" width="240" height="200" as="geometry"/>
                </mxCell>
                <mxCell id="history" value="User_History&#xa;&#xa;   - `user_id`&#xa;    - `movie_id`&#xa;    - `watched_on`" style="shape=rectangle;fillColor=#F8CECC;strokeColor=#B85450;" parent="1" vertex="1">
                    <mxGeometry x="360" y="360" width="150" height="200" as="geometry"/>
                </mxCell>
                <mxCell id="edge1" style="edgeStyle=elbowEdgeStyle;rounded=1;orthogonalLoop=1;strokeColor=#82B366;" parent="1" source="7" target="screenings" edge="1">
                    <mxGeometry relative="1" as="geometry"/>
                </mxCell>
                <mxCell id="edge2" style="edgeStyle=elbowEdgeStyle;rounded=1;orthogonalLoop=1;strokeColor=#6C8EBF;" parent="1" source="5" target="watchlist" edge="1">
                    <mxGeometry relative="1" as="geometry"/>
                </mxCell>
                <mxCell id="edge3" style="edgeStyle=elbowEdgeStyle;rounded=1;orthogonalLoop=1;strokeColor=#B85450;exitX=1.002;exitY=0.78;exitDx=0;exitDy=0;exitPerimeter=0;" parent="1" source="2" target="history" edge="1">
                    <mxGeometry relative="1" as="geometry"/>
                </mxCell>
                <mxCell id="edge4" style="edgeStyle=elbowEdgeStyle;rounded=1;orthogonalLoop=1;strokeColor=#D6B656;" parent="1" source="9" target="cinemas" edge="1">
                    <mxGeometry relative="1" as="geometry"/>
                </mxCell>
                <mxCell id="3" value="" style="edgeStyle=elbowEdgeStyle;rounded=1;orthogonalLoop=1;strokeColor=#B85450;exitX=1.002;exitY=0.78;exitDx=0;exitDy=0;exitPerimeter=0;" edge="1" parent="1" source="movies" target="2">
                    <mxGeometry relative="1" as="geometry">
                        <mxPoint x="220" y="201" as="sourcePoint"/>
                        <mxPoint x="300" y="430" as="targetPoint"/>
                    </mxGeometry>
                </mxCell>
                <mxCell id="2" value="&lt;span style=&quot;color: rgb(0, 0, 0);&quot;&gt;movie_id&lt;/span&gt;" style="text;strokeColor=none;align=center;fillColor=none;html=1;verticalAlign=middle;whiteSpace=wrap;rounded=0;" vertex="1" parent="1">
                    <mxGeometry x="260" y="290" width="60" height="30" as="geometry"/>
                </mxCell>
                <mxCell id="6" value="" style="edgeStyle=elbowEdgeStyle;rounded=1;orthogonalLoop=1;strokeColor=#6C8EBF;" edge="1" parent="1" source="movies" target="5">
                    <mxGeometry relative="1" as="geometry">
                        <mxPoint x="100" y="260" as="sourcePoint"/>
                        <mxPoint x="100" y="350" as="targetPoint"/>
                    </mxGeometry>
                </mxCell>
                <mxCell id="5" value="&lt;span style=&quot;color: rgb(0, 0, 0);&quot;&gt;movie_id&lt;/span&gt;" style="text;strokeColor=none;align=center;fillColor=none;html=1;verticalAlign=middle;whiteSpace=wrap;rounded=0;" vertex="1" parent="1">
                    <mxGeometry x="80" y="290" width="60" height="30" as="geometry"/>
                </mxCell>
                <mxCell id="8" value="" style="edgeStyle=elbowEdgeStyle;rounded=1;orthogonalLoop=1;strokeColor=#82B366;" edge="1" parent="1" source="movies" target="7">
                    <mxGeometry relative="1" as="geometry">
                        <mxPoint x="220" y="125" as="sourcePoint"/>
                        <mxPoint x="320" y="125" as="targetPoint"/>
                    </mxGeometry>
                </mxCell>
                <mxCell id="7" value="movie_id" style="text;strokeColor=none;align=center;fillColor=none;html=1;verticalAlign=middle;whiteSpace=wrap;rounded=0;" vertex="1" parent="1">
                    <mxGeometry x="240" y="110" width="60" height="30" as="geometry"/>
                </mxCell>
                <mxCell id="10" value="" style="edgeStyle=elbowEdgeStyle;rounded=1;orthogonalLoop=1;strokeColor=#D6B656;" edge="1" parent="1" source="screenings" target="9">
                    <mxGeometry relative="1" as="geometry">
                        <mxPoint x="510" y="125" as="sourcePoint"/>
                        <mxPoint x="580" y="125" as="targetPoint"/>
                    </mxGeometry>
                </mxCell>
                <mxCell id="9" value="&lt;span style=&quot;color: rgb(0, 0, 0); font-family: Helvetica; font-size: 12px; font-style: normal; font-variant-ligatures: normal; font-variant-caps: normal; font-weight: 400; letter-spacing: normal; orphans: 2; text-align: center; text-indent: 0px; text-transform: none; widows: 2; word-spacing: 0px; -webkit-text-stroke-width: 0px; white-space: normal; background-color: rgb(251, 251, 251); text-decoration-thickness: initial; text-decoration-style: initial; text-decoration-color: initial; float: none; display: inline !important;&quot;&gt;cinema_id&lt;/span&gt;" style="text;whiteSpace=wrap;html=1;" vertex="1" parent="1">
                    <mxGeometry x="600" y="-20" width="80" height="40" as="geometry"/>
                </mxCell>
            </root>
        </mxGraphModel>
    </diagram>
</mxfile>